<svg width="85" height="23" viewBox="0 0 85 23" fill="none" xmlns="http://www.w3.org/2000/svg">
<path fill-rule="evenodd" clip-rule="evenodd" d="M23.2386 22.032V9.992H21.1946V6.688H23.2386H27.7186V9.992V22.032H23.2386ZM24.9746 5.176C24.1346 5.176 23.5092 4.96133 23.0986 4.532C22.7066 4.084 22.5106 3.524 22.5106 2.852C22.5106 2.16133 22.7066 1.60133 23.0986 1.172C23.5092 0.724 24.1346 0.5 24.9746 0.5C25.8146 0.5 26.4306 0.724 26.8226 1.172C27.2332 1.60133 27.4386 2.16133 27.4386 2.852C27.4386 3.524 27.2332 4.084 26.8226 4.532C26.4306 4.96133 25.8146 5.176 24.9746 5.176ZM40.2464 22.032V9.992H38.2024V6.688H40.2464H44.7264V9.992V22.032H40.2464ZM41.9824 5.176C41.1424 5.176 40.5171 4.96133 40.1064 4.532C39.7144 4.084 39.5184 3.524 39.5184 2.852C39.5184 2.16133 39.7144 1.60133 40.1064 1.172C40.5171 0.724 41.1424 0.5 41.9824 0.5C42.8224 0.5 43.4384 0.724 43.8304 1.172C44.2411 1.60133 44.4464 2.16133 44.4464 2.852C44.4464 3.524 44.2411 4.084 43.8304 4.532C43.4384 4.96133 42.8224 5.176 41.9824 5.176ZM52.286 21.92C53.2753 22.3493 54.4326 22.564 55.758 22.564C57.1393 22.564 58.3713 22.3027 59.454 21.78C60.5366 21.2387 61.4046 20.492 62.058 19.54C62.7113 18.5693 63.066 17.4493 63.122 16.18H58.754C58.698 16.684 58.5393 17.132 58.278 17.524C58.0353 17.8973 57.6993 18.196 57.27 18.42C56.8593 18.6253 56.3553 18.728 55.758 18.728C54.9553 18.728 54.302 18.5507 53.798 18.196C53.3126 17.8227 52.958 17.3093 52.734 16.656C52.51 15.984 52.398 15.2373 52.398 14.416C52.398 13.52 52.5193 12.7453 52.762 12.092C53.0046 11.4387 53.3686 10.9253 53.854 10.552C54.358 10.1787 54.9833 9.99201 55.73 9.99201C56.626 9.99201 57.3073 10.2347 57.774 10.72C58.2593 11.1867 58.5393 11.7653 58.614 12.456H63.01C62.9353 11.224 62.5806 10.132 61.946 9.18001C61.3113 8.22801 60.462 7.49067 59.398 6.96801C58.334 6.42667 57.1113 6.15601 55.73 6.15601C54.4606 6.15601 53.3313 6.37067 52.342 6.80001C51.3713 7.22934 50.5593 7.81734 49.906 8.56401C49.2526 9.31067 48.758 10.1693 48.422 11.14C48.086 12.092 47.918 13.0907 47.918 14.136V14.668C47.918 15.676 48.0766 16.656 48.394 17.608C48.7113 18.5413 49.1966 19.3813 49.85 20.128C50.5033 20.8747 51.3153 21.472 52.286 21.92ZM69.8792 21.948C70.9245 22.3587 72.1192 22.564 73.4632 22.564C74.8258 22.564 76.0298 22.3587 77.0752 21.948C78.1205 21.5187 78.9978 20.94 79.7072 20.212C80.4352 19.484 80.9858 18.6533 81.3592 17.72C81.5365 17.2679 81.6717 16.8052 81.7648 16.332H84.5V12.332H81.7319C81.6355 11.8961 81.5019 11.4707 81.3312 11.056C80.9392 10.0853 80.3792 9.23601 79.6512 8.50801C78.9232 7.78001 78.0365 7.21067 76.9912 6.80001C75.9645 6.37067 74.7885 6.15601 73.4632 6.15601C72.1752 6.15601 71.0085 6.37067 69.9632 6.80001C68.9178 7.21067 68.0218 7.78001 67.2752 8.50801C66.5472 9.23601 65.9872 10.0853 65.5952 11.056C65.2218 12.008 65.0352 13.016 65.0352 14.08V14.724C65.0352 15.7693 65.2218 16.768 65.5952 17.72C65.9685 18.6533 66.5098 19.484 67.2192 20.212C67.9472 20.94 68.8338 21.5187 69.8792 21.948ZM75.6472 18.224C75.0685 18.5973 74.3405 18.784 73.4632 18.784C72.6232 18.784 71.9045 18.5973 71.3072 18.224C70.7098 17.8507 70.2618 17.328 69.9632 16.656C69.6645 15.984 69.5152 15.2373 69.5152 14.416C69.5152 13.5387 69.6645 12.7733 69.9632 12.12C70.2805 11.448 70.7378 10.916 71.3352 10.524C71.9325 10.132 72.6418 9.93601 73.4632 9.93601C74.3032 9.93601 75.0125 10.132 75.5912 10.524C76.1885 10.916 76.6458 11.448 76.9632 12.12C77.2805 12.7733 77.4392 13.5387 77.4392 14.416C77.4392 15.2373 77.2805 15.984 76.9632 16.656C76.6645 17.328 76.2258 17.8507 75.6472 18.224ZM31.1621 17.02V22.032H36.0901V17.02H31.1621ZM7.344 21.948C8.38933 22.3587 9.584 22.564 10.928 22.564C12.2907 22.564 13.4947 22.3587 14.54 21.948C15.5853 21.5187 16.4627 20.94 17.172 20.212C17.9 19.484 18.4507 18.6533 18.824 17.72C19.1973 16.768 19.384 15.7693 19.384 14.724V14.08C19.384 13.016 19.188 12.008 18.796 11.056C18.404 10.0853 17.844 9.23601 17.116 8.50801C16.388 7.78001 15.5013 7.21067 14.456 6.80001C13.4293 6.37067 12.2533 6.15601 10.928 6.15601C9.64 6.15601 8.47333 6.37067 7.428 6.80001C6.38267 7.21067 5.48667 7.78001 4.74 8.50801C4.012 9.23601 3.452 10.0853 3.06 11.056C2.89737 11.4707 2.77016 11.8961 2.67837 12.332H0V16.332H2.65439C2.74749 16.8052 2.88269 17.2679 3.06 17.72C3.43333 18.6533 3.97467 19.484 4.684 20.212C5.412 20.94 6.29867 21.5187 7.344 21.948ZM13.112 18.224C12.5333 18.5973 11.8053 18.784 10.928 18.784C10.088 18.784 9.36933 18.5973 8.772 18.224C8.17467 17.8507 7.72667 17.328 7.428 16.656C7.12933 15.984 6.98 15.2373 6.98 14.416C6.98 13.5387 7.12933 12.7733 7.428 12.12C7.74533 11.448 8.20267 10.916 8.8 10.524C9.39733 10.132 10.1067 9.93601 10.928 9.93601C11.768 9.93601 12.4773 10.132 13.056 10.524C13.6533 10.916 14.1107 11.448 14.428 12.12C14.7453 12.7733 14.904 13.5387 14.904 14.416C14.904 15.2373 14.7453 15.984 14.428 16.656C14.1293 17.328 13.6907 17.8507 13.112 18.224Z" fill="white"/>
</svg>
