<svg width="24" height="24" viewBox="0 0 24 24" fill="none" xmlns="http://www.w3.org/2000/svg">
<rect width="24" height="24" rx="2" fill="#FCFCFC"/>
<path fill-rule="evenodd" clip-rule="evenodd" d="M16.6499 17.6475V10.5754H15.4493V8.63473H16.6499H19.2814V10.5754V17.6475H16.6499ZM17.6696 7.7466C17.1762 7.7466 16.8089 7.62051 16.5677 7.36833C16.3375 7.10518 16.2223 6.77625 16.2223 6.38152C16.2223 5.97584 16.3375 5.6469 16.5677 5.39472C16.8089 5.13157 17.1762 5 17.6696 5C18.163 5 18.5249 5.13157 18.7551 5.39472C18.9963 5.6469 19.117 5.97584 19.117 6.38152C19.117 6.77625 18.9963 7.10518 18.7551 7.36833C18.5249 7.62051 18.163 7.7466 17.6696 7.7466ZM9.41892 17.96C8.62948 17.96 7.92775 17.8394 7.31374 17.5982C6.69973 17.346 6.17892 17.0061 5.7513 16.5785C5.33465 16.1509 5.01668 15.663 4.79739 15.1147C4.69324 14.8492 4.61383 14.5774 4.55914 14.2995H3V11.9499H4.57323C4.62714 11.6939 4.70186 11.444 4.79739 11.2004C5.02765 10.6303 5.35658 10.1314 5.78419 9.70377C6.22277 9.27615 6.74907 8.94174 7.36308 8.70052C7.97709 8.44833 8.66237 8.32224 9.41892 8.32224C10.1974 8.32224 10.8882 8.44833 11.4912 8.70052C12.1052 8.94174 12.626 9.27615 13.0536 9.70377C13.4813 10.1314 13.8102 10.6303 14.0404 11.2004C14.2707 11.7596 14.3858 12.3517 14.3858 12.9767V13.3549C14.3858 13.9689 14.2762 14.5555 14.0569 15.1147C13.8376 15.663 13.5142 16.1509 13.0865 16.5785C12.6699 17.0061 12.1546 17.346 11.5405 17.5982C10.9265 17.8394 10.2193 17.96 9.41892 17.96ZM9.41892 15.7397C9.93425 15.7397 10.3619 15.6301 10.7018 15.4108C11.0417 15.1915 11.2993 14.8845 11.4748 14.4898C11.6612 14.095 11.7544 13.6565 11.7544 13.174C11.7544 12.6587 11.6612 12.2091 11.4748 11.8254C11.2884 11.4307 11.0197 11.1182 10.6689 10.8879C10.329 10.6577 9.91232 10.5425 9.41892 10.5425C8.93648 10.5425 8.51983 10.6577 8.16897 10.8879C7.81811 11.1182 7.54948 11.4307 7.36308 11.8254C7.18765 12.2091 7.09993 12.6587 7.09993 13.174C7.09993 13.6565 7.18765 14.095 7.36308 14.4898C7.53851 14.8845 7.80166 15.1915 8.15252 15.4108C8.50339 15.6301 8.92552 15.7397 9.41892 15.7397Z" fill="#222222"/>
</svg>
